<svg xmlns="http://www.w3.org/2000/svg" viewBox="0 0 128 128">
  <defs>
    <linearGradient id="grad1" x1="0%" y1="0%" x2="100%" y2="100%">
      <stop offset="0%" style="stop-color:#4F46E5;stop-opacity:1" />
      <stop offset="100%" style="stop-color:#7C3AED;stop-opacity:1" />
    </linearGradient>
  </defs>
  <rect x="0" y="0" width="128" height="128" rx="28" fill="url(#grad1)" />
  <path d="M44 38 h40 a4 4 0 0 1 4 4 v8 a4 4 0 0 1 -4 4 h-28 v12 h24 a4 4 0 0 1 4 4 v8 a4 4 0 0 1 -4 4 h-24 v24 a4 4 0 0 1 -4 4 h-8 a4 4 0 0 1 -4 -4 v-64 a4 4 0 0 1 4 -4 z" fill="white" />
</svg>
